<svg width="28" height="29" viewBox="0 0 28 29" fill="none" xmlns="http://www.w3.org/2000/svg">
<path d="M27.7824 16.82C27.3955 17.0617 26.6218 17.3758 25.4611 17.7625C24.3005 18.1492 23.5751 18.3425 23.285 18.3425L18.715 16.82H16.1036C16.2003 19.0917 16.2487 20.155 16.2487 20.01L17.5544 24.1425C17.5544 24.4325 17.361 25.1817 16.9741 26.39C16.5872 27.55 16.2729 28.3475 16.0311 28.7825C15.5475 28.9275 15.0881 29 14.6528 29C13.6857 29 13.0086 28.5167 12.6218 27.55C12.38 26.825 12.1382 26.0758 11.8964 25.3025C11.6062 24.8192 11.4611 24.2392 11.4611 23.5625C11.4611 22.3542 11.8238 21.17 12.5492 20.01V16.82H8.26943C7.10881 17.7867 6.02072 18.27 5.00518 18.27C4.56995 18.27 4.13471 18.1733 3.69948 17.98C2.97409 17.5933 2.22452 17.2067 1.45078 16.82C0.483592 16.1917 0 15.3217 0 14.21C0 13.775 0.0725388 13.3158 0.217616 12.8325C0.60449 12.5425 1.37824 12.2042 2.53886 11.8175C3.69948 11.4308 4.42487 11.2375 4.71503 11.2375L9.57513 12.8325C9.962 12.7358 10.3489 12.76 10.7358 12.905C11.3161 13.1467 11.9206 13.2675 12.5492 13.2675V8.99C11.8238 7.83 11.4611 6.64583 11.4611 5.4375C11.4611 4.76083 11.6062 4.18083 11.8964 3.6975C12.1382 2.92417 12.38 2.175 12.6218 1.45C13.0086 0.483333 13.6857 0 14.6528 0C15.0881 0 15.5475 0.0724991 16.0311 0.217497C16.2729 0.652497 16.5872 1.47416 16.9741 2.6825C17.361 3.8425 17.5544 4.5675 17.5544 4.8575L16.1762 9.2075C16.418 9.69083 16.5389 10.0533 16.5389 10.295C16.5389 10.44 16.4663 10.7542 16.3212 11.2375C16.1762 11.6725 16.1036 12.18 16.1036 12.76V13.195C17.0225 13.195 17.772 13.1467 18.3523 13.05C18.7392 13.0017 19.0777 13.0017 19.3679 13.05C20.6736 11.9867 21.8826 11.455 22.9948 11.455C23.5268 11.455 23.9862 11.5758 24.3731 11.8175C25.0984 12.1558 25.848 12.4942 26.6218 12.8325C27.5406 13.4608 28 14.3067 28 15.37C28 15.805 27.9275 16.2883 27.7824 16.82Z" fill="#241111"/>
</svg>
